<svg id="visual" viewBox="0 0 900 600" width="900" height="600" xmlns="http://www.w3.org/2000/svg" xmlns:xlink="http://www.w3.org/1999/xlink" version="1.1"><rect x="0" y="0" width="900" height="600" fill="#111827"></rect><defs><linearGradient id="grad1_0" x1="33.3%" y1="100%" x2="100%" y2="0%"><stop offset="20%" stop-color="#272f3a" stop-opacity="1"></stop><stop offset="80%" stop-color="#272f3a" stop-opacity="1"></stop></linearGradient></defs><defs><linearGradient id="grad1_1" x1="33.3%" y1="100%" x2="100%" y2="0%"><stop offset="20%" stop-color="#272f3a" stop-opacity="1"></stop><stop offset="80%" stop-color="#1f2734" stop-opacity="1"></stop></linearGradient></defs><defs><linearGradient id="grad1_2" x1="33.3%" y1="100%" x2="100%" y2="0%"><stop offset="20%" stop-color="#181f2d" stop-opacity="1"></stop><stop offset="80%" stop-color="#1f2734" stop-opacity="1"></stop></linearGradient></defs><defs><linearGradient id="grad1_3" x1="33.3%" y1="100%" x2="100%" y2="0%"><stop offset="20%" stop-color="#181f2d" stop-opacity="1"></stop><stop offset="80%" stop-color="#111827" stop-opacity="1"></stop></linearGradient></defs><defs><linearGradient id="grad2_0" x1="0%" y1="100%" x2="66.7%" y2="0%"><stop offset="20%" stop-color="#272f3a" stop-opacity="1"></stop><stop offset="80%" stop-color="#272f3a" stop-opacity="1"></stop></linearGradient></defs><defs><linearGradient id="grad2_1" x1="0%" y1="100%" x2="66.7%" y2="0%"><stop offset="20%" stop-color="#1f2734" stop-opacity="1"></stop><stop offset="80%" stop-color="#272f3a" stop-opacity="1"></stop></linearGradient></defs><defs><linearGradient id="grad2_2" x1="0%" y1="100%" x2="66.7%" y2="0%"><stop offset="20%" stop-color="#1f2734" stop-opacity="1"></stop><stop offset="80%" stop-color="#181f2d" stop-opacity="1"></stop></linearGradient></defs><defs><linearGradient id="grad2_3" x1="0%" y1="100%" x2="66.7%" y2="0%"><stop offset="20%" stop-color="#111827" stop-opacity="1"></stop><stop offset="80%" stop-color="#181f2d" stop-opacity="1"></stop></linearGradient></defs><g transform="translate(900, 600)"><path d="M-297.5 0C-295.9 -32 -294.3 -64 -282.9 -91.9C-271.5 -119.8 -250.2 -143.5 -230.6 -167.5C-210.9 -191.5 -192.8 -215.7 -169.3 -233C-145.8 -250.3 -116.9 -260.5 -87.8 -270.1C-58.6 -279.7 -29.3 -288.6 0 -297.5L0 0Z" fill="#141c2a"></path><path d="M-223.1 0C-221.9 -24 -220.7 -48 -212.2 -68.9C-203.6 -89.8 -187.7 -107.6 -172.9 -125.6C-158.2 -143.6 -144.6 -161.8 -127 -174.7C-109.3 -187.7 -87.7 -195.4 -65.8 -202.6C-44 -209.8 -22 -216.4 0 -223.1L0 0Z" fill="#1c2330"></path><path d="M-148.7 0C-147.9 -16 -147.2 -32 -141.4 -46C-135.7 -59.9 -125.1 -71.8 -115.3 -83.8C-105.4 -95.8 -96.4 -107.9 -84.6 -116.5C-72.9 -125.1 -58.4 -130.3 -43.9 -135.1C-29.3 -139.8 -14.7 -144.3 0 -148.7L0 0Z" fill="#232b37"></path><path d="M-74.4 0C-74 -8 -73.6 -16 -70.7 -23C-67.9 -29.9 -62.6 -35.9 -57.6 -41.9C-52.7 -47.9 -48.2 -53.9 -42.3 -58.2C-36.4 -62.6 -29.2 -65.1 -21.9 -67.5C-14.7 -69.9 -7.3 -72.1 0 -74.4L0 0Z" fill="#272f3a"></path></g><g transform="translate(0, 0)"><path d="M297.5 0C290.2 29.8 282.9 59.5 273.9 89C264.9 118.5 254.3 147.7 237 172.2C219.8 196.7 195.8 216.4 171 235.4C146.2 254.4 120.6 272.7 91.9 282.9C63.3 293.1 31.6 295.3 0 297.5L0 0Z" fill="#141c2a"></path><path d="M223.1 0C217.6 22.3 212.1 44.6 205.4 66.7C198.7 88.9 190.7 110.8 177.8 129.2C164.8 147.5 146.9 162.3 128.3 176.6C109.7 190.8 90.4 204.5 68.9 212.2C47.4 219.8 23.7 221.5 0 223.1L0 0Z" fill="#1c2330"></path><path d="M148.7 0C145.1 14.9 141.4 29.8 137 44.5C132.5 59.2 127.2 73.9 118.5 86.1C109.9 98.4 97.9 108.2 85.5 117.7C73.1 127.2 60.3 136.3 46 141.4C31.6 146.6 15.8 147.6 0 148.7L0 0Z" fill="#232b37"></path><path d="M74.4 0C72.5 7.4 70.7 14.9 68.5 22.2C66.2 29.6 63.6 36.9 59.3 43.1C54.9 49.2 49 54.1 42.8 58.9C36.6 63.6 30.1 68.2 23 70.7C15.8 73.3 7.9 73.8 0 74.4L0 0Z" fill="#272f3a"></path></g></svg>