<svg id="visual" viewBox="0 0 900 600" width="900" height="600" xmlns="http://www.w3.org/2000/svg" xmlns:xlink="http://www.w3.org/1999/xlink" version="1.1"><path d="M0 67L13.7 75C27.3 83 54.7 99 82 105C109.3 111 136.7 107 163.8 105C191 103 218 103 245.2 103C272.3 103 299.7 103 327 97C354.3 91 381.7 79 409 77C436.3 75 463.7 83 491 85C518.3 87 545.7 83 573 84C600.3 85 627.7 91 654.8 95C682 99 709 101 736.2 104C763.3 107 790.7 111 818 114C845.3 117 872.7 119 886.3 120L900 121L900 0L886.3 0C872.7 0 845.3 0 818 0C790.7 0 763.3 0 736.2 0C709 0 682 0 654.8 0C627.7 0 600.3 0 573 0C545.7 0 518.3 0 491 0C463.7 0 436.3 0 409 0C381.7 0 354.3 0 327 0C299.7 0 272.3 0 245.2 0C218 0 191 0 163.8 0C136.7 0 109.3 0 82 0C54.7 0 27.3 0 13.7 0L0 0Z" fill="#2a3754"></path><path d="M0 211L13.7 212C27.3 213 54.7 215 82 228C109.3 241 136.7 265 163.8 283C191 301 218 313 245.2 318C272.3 323 299.7 321 327 322C354.3 323 381.7 327 409 310C436.3 293 463.7 255 491 241C518.3 227 545.7 237 573 254C600.3 271 627.7 295 654.8 311C682 327 709 335 736.2 330C763.3 325 790.7 307 818 293C845.3 279 872.7 269 886.3 264L900 259L900 119L886.3 118C872.7 117 845.3 115 818 112C790.7 109 763.3 105 736.2 102C709 99 682 97 654.8 93C627.7 89 600.3 83 573 82C545.7 81 518.3 85 491 83C463.7 81 436.3 73 409 75C381.7 77 354.3 89 327 95C299.7 101 272.3 101 245.2 101C218 101 191 101 163.8 103C136.7 105 109.3 109 82 103C54.7 97 27.3 81 13.7 73L0 65Z" fill="#1d273d"></path><path d="M0 397L13.7 411C27.3 425 54.7 453 82 459C109.3 465 136.7 449 163.8 440C191 431 218 429 245.2 424C272.3 419 299.7 411 327 411C354.3 411 381.7 419 409 425C436.3 431 463.7 435 491 443C518.3 451 545.7 463 573 467C600.3 471 627.7 467 654.8 463C682 459 709 455 736.2 444C763.3 433 790.7 415 818 413C845.3 411 872.7 425 886.3 432L900 439L900 257L886.3 262C872.7 267 845.3 277 818 291C790.7 305 763.3 323 736.2 328C709 333 682 325 654.8 309C627.7 293 600.3 269 573 252C545.7 235 518.3 225 491 239C463.7 253 436.3 291 409 308C381.7 325 354.3 321 327 320C299.7 319 272.3 321 245.2 316C218 311 191 299 163.8 281C136.7 263 109.3 239 82 226C54.7 213 27.3 211 13.7 210L0 209Z" fill="#111827"></path><path d="M0 487L13.7 494C27.3 501 54.7 515 82 522C109.3 529 136.7 529 163.8 525C191 521 218 513 245.2 508C272.3 503 299.7 501 327 495C354.3 489 381.7 479 409 483C436.3 487 463.7 505 491 520C518.3 535 545.7 547 573 554C600.3 561 627.7 563 654.8 558C682 553 709 541 736.2 530C763.3 519 790.7 509 818 508C845.3 507 872.7 515 886.3 519L900 523L900 437L886.3 430C872.7 423 845.3 409 818 411C790.7 413 763.3 431 736.2 442C709 453 682 457 654.8 461C627.7 465 600.3 469 573 465C545.7 461 518.3 449 491 441C463.7 433 436.3 429 409 423C381.7 417 354.3 409 327 409C299.7 409 272.3 417 245.2 422C218 427 191 429 163.8 438C136.7 447 109.3 463 82 457C54.7 451 27.3 423 13.7 409L0 395Z" fill="#101622"></path><path d="M0 601L13.7 601C27.3 601 54.7 601 82 601C109.3 601 136.7 601 163.8 601C191 601 218 601 245.2 601C272.3 601 299.7 601 327 601C354.3 601 381.7 601 409 601C436.3 601 463.7 601 491 601C518.3 601 545.7 601 573 601C600.3 601 627.7 601 654.8 601C682 601 709 601 736.2 601C763.3 601 790.7 601 818 601C845.3 601 872.7 601 886.3 601L900 601L900 521L886.3 517C872.7 513 845.3 505 818 506C790.7 507 763.3 517 736.2 528C709 539 682 551 654.8 556C627.7 561 600.3 559 573 552C545.7 545 518.3 533 491 518C463.7 503 436.3 485 409 481C381.7 477 354.3 487 327 493C299.7 499 272.3 501 245.2 506C218 511 191 519 163.8 523C136.7 527 109.3 527 82 520C54.7 513 27.3 499 13.7 492L0 485Z" fill="#0e131e"></path></svg>