<svg id="visual" viewBox="0 0 900 600" width="900" height="600" xmlns="http://www.w3.org/2000/svg" xmlns:xlink="http://www.w3.org/1999/xlink" version="1.1"><rect x="0" y="0" width="900" height="600" fill="#111827"></rect><defs><linearGradient id="grad1_0" x1="33.3%" y1="100%" x2="100%" y2="0%"><stop offset="20%" stop-color="#384c67" stop-opacity="1"></stop><stop offset="80%" stop-color="#384c67" stop-opacity="1"></stop></linearGradient></defs><defs><linearGradient id="grad1_1" x1="33.3%" y1="100%" x2="100%" y2="0%"><stop offset="20%" stop-color="#384c67" stop-opacity="1"></stop><stop offset="80%" stop-color="#2b3a51" stop-opacity="1"></stop></linearGradient></defs><defs><linearGradient id="grad1_2" x1="33.3%" y1="100%" x2="100%" y2="0%"><stop offset="20%" stop-color="#1e283b" stop-opacity="1"></stop><stop offset="80%" stop-color="#2b3a51" stop-opacity="1"></stop></linearGradient></defs><defs><linearGradient id="grad1_3" x1="33.3%" y1="100%" x2="100%" y2="0%"><stop offset="20%" stop-color="#1e283b" stop-opacity="1"></stop><stop offset="80%" stop-color="#111827" stop-opacity="1"></stop></linearGradient></defs><defs><linearGradient id="grad2_0" x1="0%" y1="100%" x2="66.7%" y2="0%"><stop offset="20%" stop-color="#384c67" stop-opacity="1"></stop><stop offset="80%" stop-color="#384c67" stop-opacity="1"></stop></linearGradient></defs><defs><linearGradient id="grad2_1" x1="0%" y1="100%" x2="66.7%" y2="0%"><stop offset="20%" stop-color="#2b3a51" stop-opacity="1"></stop><stop offset="80%" stop-color="#384c67" stop-opacity="1"></stop></linearGradient></defs><defs><linearGradient id="grad2_2" x1="0%" y1="100%" x2="66.7%" y2="0%"><stop offset="20%" stop-color="#2b3a51" stop-opacity="1"></stop><stop offset="80%" stop-color="#1e283b" stop-opacity="1"></stop></linearGradient></defs><defs><linearGradient id="grad2_3" x1="0%" y1="100%" x2="66.7%" y2="0%"><stop offset="20%" stop-color="#111827" stop-opacity="1"></stop><stop offset="80%" stop-color="#1e283b" stop-opacity="1"></stop></linearGradient></defs><g transform="translate(900, 600)"><path d="M-297.5 0C-291.1 -29.7 -284.7 -59.5 -276.8 -89.9C-268.8 -120.4 -259.4 -151.5 -240.6 -174.8C-221.9 -198.2 -194 -213.9 -168.1 -231.4C-142.3 -248.9 -118.5 -268.3 -90.9 -279.6C-63.2 -290.9 -31.6 -294.2 0 -297.5L0 0Z" fill="#172031"></path><path d="M-223.1 0C-218.3 -22.3 -213.5 -44.6 -207.6 -67.4C-201.6 -90.3 -194.5 -113.6 -180.5 -131.1C-166.4 -148.7 -145.5 -160.4 -126.1 -173.5C-106.7 -186.7 -88.9 -201.2 -68.1 -209.7C-47.4 -218.2 -23.7 -220.6 0 -223.1L0 0Z" fill="#243146"></path><path d="M-148.7 0C-145.5 -14.9 -142.3 -29.7 -138.4 -45C-134.4 -60.2 -129.7 -75.7 -120.3 -87.4C-111 -99.1 -97 -106.9 -84.1 -115.7C-71.1 -124.4 -59.3 -134.1 -45.4 -139.8C-31.6 -145.5 -15.8 -147.1 0 -148.7L0 0Z" fill="#31435c"></path><path d="M-74.4 0C-72.8 -7.4 -71.2 -14.9 -69.2 -22.5C-67.2 -30.1 -64.8 -37.9 -60.2 -43.7C-55.5 -49.6 -48.5 -53.5 -42 -57.8C-35.6 -62.2 -29.6 -67.1 -22.7 -69.9C-15.8 -72.7 -7.9 -73.5 0 -74.4L0 0Z" fill="#384c67"></path></g><g transform="translate(0, 0)"><path d="M297.5 0C289.9 29.6 282.3 59.2 273.9 89C265.5 118.8 256.1 148.6 239.5 174C222.8 199.3 198.8 220.1 173.4 238.7C148 257.2 121.1 273.5 91.9 282.9C62.8 292.3 31.4 294.9 0 297.5L0 0Z" fill="#172031"></path><path d="M223.1 0C217.4 22.2 211.8 44.4 205.4 66.7C199.1 89.1 192.1 111.5 179.6 130.5C167.1 149.5 149.1 165.1 130 179C111 192.9 90.8 205.1 68.9 212.2C47.1 219.2 23.5 221.2 0 223.1L0 0Z" fill="#243146"></path><path d="M148.7 0C145 14.8 141.2 29.6 137 44.5C132.7 59.4 128.1 74.3 119.7 87C111.4 99.7 99.4 110.1 86.7 119.3C74 128.6 60.5 136.7 46 141.4C31.4 146.2 15.7 147.4 0 148.7L0 0Z" fill="#31435c"></path><path d="M74.4 0C72.5 7.4 70.6 14.8 68.5 22.2C66.4 29.7 64 37.2 59.9 43.5C55.7 49.8 49.7 55 43.3 59.7C37 64.3 30.3 68.4 23 70.7C15.7 73.1 7.8 73.7 0 74.4L0 0Z" fill="#384c67"></path></g></svg>