<svg id="visual" viewBox="0 0 900 600" width="900" height="600" xmlns="http://www.w3.org/2000/svg" xmlns:xlink="http://www.w3.org/1999/xlink" version="1.1"><rect x="0" y="0" width="900" height="600" fill="#111827"></rect><path d="M0 383L21.5 387.8C43 392.7 86 402.3 128.8 425C171.7 447.7 214.3 483.3 257.2 481C300 478.7 343 438.3 385.8 435.5C428.7 432.7 471.3 467.3 514.2 475.3C557 483.3 600 464.7 642.8 464.2C685.7 463.7 728.3 481.3 771.2 481C814 480.7 857 462.3 878.5 453.2L900 444L900 601L878.5 601C857 601 814 601 771.2 601C728.3 601 685.7 601 642.8 601C600 601 557 601 514.2 601C471.3 601 428.7 601 385.8 601C343 601 300 601 257.2 601C214.3 601 171.7 601 128.8 601C86 601 43 601 21.5 601L0 601Z" fill="#384c67" stroke-linecap="round" stroke-linejoin="miter"></path></svg>