<svg id="visual" viewBox="0 0 900 600" width="900" height="600" xmlns="http://www.w3.org/2000/svg" xmlns:xlink="http://www.w3.org/1999/xlink" version="1.1"><rect x="0" y="0" width="900" height="600" fill="#111827"></rect><path d="M0 379L21.5 387.2C43 395.3 86 411.7 128.8 414.8C171.7 418 214.3 408 257.2 397C300 386 343 374 385.8 377.8C428.7 381.7 471.3 401.3 514.2 413.7C557 426 600 431 642.8 432C685.7 433 728.3 430 771.2 425.5C814 421 857 415 878.5 412L900 409L900 601L878.5 601C857 601 814 601 771.2 601C728.3 601 685.7 601 642.8 601C600 601 557 601 514.2 601C471.3 601 428.7 601 385.8 601C343 601 300 601 257.2 601C214.3 601 171.7 601 128.8 601C86 601 43 601 21.5 601L0 601Z" fill="#384c67"></path><path d="M0 420L21.5 417.3C43 414.7 86 409.3 128.8 405.8C171.7 402.3 214.3 400.7 257.2 407.8C300 415 343 431 385.8 430.5C428.7 430 471.3 413 514.2 411.5C557 410 600 424 642.8 437.5C685.7 451 728.3 464 771.2 468.5C814 473 857 469 878.5 467L900 465L900 601L878.5 601C857 601 814 601 771.2 601C728.3 601 685.7 601 642.8 601C600 601 557 601 514.2 601C471.3 601 428.7 601 385.8 601C343 601 300 601 257.2 601C214.3 601 171.7 601 128.8 601C86 601 43 601 21.5 601L0 601Z" fill="#405571"></path><path d="M0 456L21.5 461.5C43 467 86 478 128.8 481C171.7 484 214.3 479 257.2 481.8C300 484.7 343 495.3 385.8 493.8C428.7 492.3 471.3 478.7 514.2 475.3C557 472 600 479 642.8 477.8C685.7 476.7 728.3 467.3 771.2 464.2C814 461 857 464 878.5 465.5L900 467L900 601L878.5 601C857 601 814 601 771.2 601C728.3 601 685.7 601 642.8 601C600 601 557 601 514.2 601C471.3 601 428.7 601 385.8 601C343 601 300 601 257.2 601C214.3 601 171.7 601 128.8 601C86 601 43 601 21.5 601L0 601Z" fill="#485e7c"></path><path d="M0 540L21.5 536.5C43 533 86 526 128.8 516C171.7 506 214.3 493 257.2 496.2C300 499.3 343 518.7 385.8 521.3C428.7 524 471.3 510 514.2 506C557 502 600 508 642.8 510.7C685.7 513.3 728.3 512.7 771.2 516.2C814 519.7 857 527.3 878.5 531.2L900 535L900 601L878.5 601C857 601 814 601 771.2 601C728.3 601 685.7 601 642.8 601C600 601 557 601 514.2 601C471.3 601 428.7 601 385.8 601C343 601 300 601 257.2 601C214.3 601 171.7 601 128.8 601C86 601 43 601 21.5 601L0 601Z" fill="#506786"></path><path d="M0 528L21.5 535.5C43 543 86 558 128.8 563C171.7 568 214.3 563 257.2 557.8C300 552.7 343 547.3 385.8 546C428.7 544.7 471.3 547.3 514.2 548.8C557 550.3 600 550.7 642.8 547.5C685.7 544.3 728.3 537.7 771.2 538.8C814 540 857 549 878.5 553.5L900 558L900 601L878.5 601C857 601 814 601 771.2 601C728.3 601 685.7 601 642.8 601C600 601 557 601 514.2 601C471.3 601 428.7 601 385.8 601C343 601 300 601 257.2 601C214.3 601 171.7 601 128.8 601C86 601 43 601 21.5 601L0 601Z" fill="#587191"></path></svg>