<svg id="visual" viewBox="0 0 900 600" width="900" height="600" xmlns="http://www.w3.org/2000/svg" xmlns:xlink="http://www.w3.org/1999/xlink" version="1.1"><path d="M0 97L82 109L164 61L245 91L327 67L409 43L491 115L573 49L655 103L736 97L818 43L900 67L900 0L818 0L736 0L655 0L573 0L491 0L409 0L327 0L245 0L164 0L82 0L0 0Z" fill="#3c4e66"></path><path d="M0 217L82 319L164 289L245 199L327 319L409 271L491 289L573 301L655 259L736 337L818 229L900 217L900 65L818 41L736 95L655 101L573 47L491 113L409 41L327 65L245 89L164 59L82 107L0 95Z" fill="#445770"></path><path d="M0 307L82 409L164 343L245 283L327 379L409 331L491 343L573 397L655 343L736 409L818 313L900 301L900 215L818 227L736 335L655 257L573 299L491 287L409 269L327 317L245 197L164 287L82 317L0 215Z" fill="#4d617b"></path><path d="M0 499L82 493L164 457L245 463L327 493L409 523L491 451L573 535L655 523L736 487L818 439L900 481L900 299L818 311L736 407L655 341L573 395L491 341L409 329L327 377L245 281L164 341L82 407L0 305Z" fill="#566a86"></path><path d="M0 601L82 601L164 601L245 601L327 601L409 601L491 601L573 601L655 601L736 601L818 601L900 601L900 479L818 437L736 485L655 521L573 533L491 449L409 521L327 491L245 461L164 455L82 491L0 497Z" fill="#5f7491"></path></svg>